<svg width="35" height="26" viewBox="0 0 35 26" fill="none" xmlns="http://www.w3.org/2000/svg">
<g clip-path="url(#clip0_301_40)">
<path d="M33 0.5H2C1.17157 0.5 0.5 1.17157 0.5 2V24C0.5 24.8284 1.17157 25.5 2 25.5H33C33.8284 25.5 34.5 24.8284 34.5 24V2C34.5 1.17157 33.8284 0.5 33 0.5Z" stroke="black" stroke-opacity="0.26"/>
<rect x="19.5625" y="11.276" width="5.95455" height="1.92045" rx="0.960227" stroke="#021752" stroke-width="0.5"/>
<rect x="19.5625" y="14.4361" width="5.95455" height="1.92045" rx="0.960227" stroke="#021752" stroke-width="0.5"/>
<rect x="19.5625" y="17.5961" width="5.95455" height="1.92045" rx="0.960227" stroke="#021752" stroke-width="0.5"/>
<path d="M7 4.5H27.1875C27.4636 4.5 27.6875 4.72386 27.6875 5V22.3636C27.6875 22.6398 27.4636 22.8636 27.1875 22.8636H7C6.72386 22.8636 6.5 22.6398 6.5 22.3636V5C6.5 4.72386 6.72386 4.5 7 4.5Z" stroke="#021752"/>
<path d="M6.60341 8.03409H27.5824" stroke="#021752" stroke-linecap="round" stroke-linejoin="round"/>
<rect x="8.42046" y="5.61363" width="1.61364" height="1.21023" fill="#021752"/>
<rect x="10.4375" y="5.61363" width="1.61364" height="1.21023" fill="#021752"/>
<rect x="12.4545" y="5.61363" width="1.61364" height="1.21023" fill="#021752"/>
<g clip-path="url(#clip1_301_40)">
<path d="M17.2239 14.5235L16.5727 14.413C16.5049 14.194 16.4176 13.9827 16.311 13.7812L16.6948 13.2443C16.8576 13.0156 16.8324 12.7035 16.6328 12.5058L16.0552 11.9282C15.9466 11.8197 15.8032 11.7596 15.6501 11.7596C15.5299 11.7596 15.4156 11.7964 15.3186 11.8662L14.7798 12.25C14.5705 12.1395 14.3515 12.0484 14.1247 11.9805L14.0162 11.3371C13.9696 11.0599 13.7312 10.8583 13.4502 10.8583H12.6342C12.3531 10.8583 12.1147 11.0599 12.0682 11.3371L11.9558 11.9961C11.7387 12.0639 11.5275 12.1531 11.3259 12.2616L10.7929 11.8778C10.6959 11.808 10.5797 11.7712 10.4595 11.7712C10.3064 11.7712 10.161 11.8313 10.0544 11.9398L9.47486 12.5174C9.27716 12.7151 9.25002 13.0272 9.41283 13.2559L9.80048 13.8006C9.69388 14.0041 9.6086 14.2153 9.5427 14.4344L8.8992 14.5429C8.62203 14.5894 8.42046 14.8278 8.42046 15.1089V15.9249C8.42046 16.2059 8.62203 16.4443 8.8992 16.4908L9.5582 16.6032C9.62604 16.8203 9.7152 17.0316 9.82374 17.2332L9.44191 17.7643C9.2791 17.993 9.30429 18.305 9.50393 18.5027L10.0815 19.0803C10.1901 19.1889 10.3335 19.2489 10.4866 19.2489C10.6068 19.2489 10.7211 19.2121 10.8181 19.1423L11.3627 18.7547C11.5585 18.8574 11.7639 18.9408 11.9752 19.0067L12.0837 19.6579C12.1302 19.9351 12.3686 20.1367 12.6497 20.1367H13.4676C13.7487 20.1367 13.9871 19.9351 14.0336 19.6579L14.1441 19.0067C14.3631 18.9388 14.5744 18.8516 14.7759 18.745L15.3128 19.1288C15.4097 19.1986 15.526 19.2354 15.6462 19.2354C15.7993 19.2354 15.9428 19.1753 16.0513 19.0667L16.6289 18.4892C16.8266 18.2915 16.8537 17.9794 16.6909 17.7507L16.3071 17.2119C16.4138 17.0083 16.5029 16.7971 16.5688 16.58L17.2201 16.4714C17.4972 16.4249 17.6988 16.1865 17.6988 15.9055V15.0895C17.7027 14.8084 17.5011 14.57 17.2239 14.5235ZM17.1794 15.9055C17.1794 15.9307 17.1619 15.952 17.1367 15.9559L16.3227 16.0916C16.2199 16.109 16.1385 16.1846 16.1133 16.2834C16.0397 16.5684 15.9273 16.8417 15.7761 17.0956C15.7237 17.1847 15.7276 17.2952 15.7877 17.3805L16.2664 18.055C16.28 18.0744 16.2781 18.1034 16.2606 18.1209L15.683 18.6985C15.6695 18.7121 15.6559 18.714 15.6462 18.714C15.6346 18.714 15.6249 18.7101 15.6171 18.7043L14.9446 18.2256C14.8612 18.1655 14.7488 18.1616 14.6596 18.2139C14.4057 18.3651 14.1324 18.4775 13.8475 18.5512C13.7467 18.5764 13.6711 18.6597 13.6556 18.7605L13.518 19.5746C13.5141 19.5998 13.4928 19.6172 13.4676 19.6172H12.6516C12.6264 19.6172 12.6051 19.5998 12.6012 19.5746L12.4656 18.7605C12.4481 18.6578 12.3725 18.5764 12.2737 18.5512C11.9965 18.4795 11.729 18.369 11.479 18.2256C11.4383 18.2023 11.3918 18.1907 11.3472 18.1907C11.2949 18.1907 11.2406 18.2062 11.196 18.2391L10.5176 18.7217C10.5079 18.7276 10.4982 18.7314 10.4886 18.7314C10.4808 18.7314 10.4653 18.7295 10.4517 18.7159L9.87414 18.1383C9.85669 18.1209 9.85475 18.0938 9.86832 18.0724L10.3451 17.4037C10.4052 17.3185 10.4091 17.206 10.3568 17.1169C10.2056 16.8649 10.0893 16.5916 10.0156 16.3067C9.98849 16.2078 9.90709 16.1323 9.8063 16.1148L8.98642 15.9753C8.96122 15.9714 8.94378 15.9501 8.94378 15.9249V15.1089C8.94378 15.0837 8.96122 15.0623 8.98642 15.0585L9.79467 14.9228C9.89739 14.9054 9.98074 14.8298 10.0059 14.729C10.0777 14.444 10.1881 14.1688 10.3374 13.9149C10.3897 13.8258 10.3839 13.7153 10.3238 13.6319L9.84119 12.9535C9.82762 12.9342 9.82956 12.9051 9.847 12.8876L10.4246 12.31C10.4382 12.2965 10.4517 12.2945 10.4614 12.2945C10.4731 12.2945 10.4827 12.2984 10.4905 12.3042L11.1592 12.781C11.2445 12.8411 11.3569 12.845 11.446 12.7927C11.698 12.6415 11.9713 12.5252 12.2562 12.4515C12.3551 12.4244 12.4307 12.343 12.4481 12.2422L12.5877 11.4223C12.5915 11.3971 12.6129 11.3797 12.6381 11.3797H13.4541C13.4793 11.3797 13.5006 11.3971 13.5045 11.4223L13.6401 12.2306C13.6576 12.3333 13.7332 12.4167 13.834 12.4418C14.1266 12.5155 14.4057 12.6299 14.6655 12.783C14.7546 12.8353 14.8651 12.8314 14.9504 12.7713L15.6191 12.2907C15.6288 12.2849 15.6385 12.281 15.6481 12.281C15.6559 12.281 15.6714 12.2829 15.685 12.2965L16.2626 12.8741C16.28 12.8915 16.282 12.9187 16.2684 12.94L15.7896 13.6125C15.7296 13.6959 15.7257 13.8083 15.778 13.8975C15.9292 14.1514 16.0416 14.4247 16.1153 14.7096C16.1405 14.8104 16.2238 14.886 16.3246 14.9015L17.1387 15.0391C17.1639 15.043 17.1813 15.0643 17.1813 15.0895V15.9055H17.1794Z" fill="#021752"/>
<path d="M13.0606 13.494C11.9558 13.494 11.0584 14.3914 11.0584 15.4962C11.0584 16.601 11.9558 17.4984 13.0606 17.4984C14.1654 17.4984 15.0628 16.601 15.0628 15.4962C15.0628 14.3914 14.1654 13.494 13.0606 13.494ZM13.0606 16.9751C12.2446 16.9751 11.5817 16.3122 11.5817 15.4962C11.5817 14.6802 12.2446 14.0173 13.0606 14.0173C13.8766 14.0173 14.5395 14.6802 14.5395 15.4962C14.5395 16.3122 13.8766 16.9751 13.0606 16.9751Z" fill="#021752"/>
</g>
</g>
<defs>
<clipPath id="clip0_301_40">
<rect width="35" height="26" fill="white"/>
</clipPath>
<clipPath id="clip1_301_40">
<rect width="9.27841" height="9.27841" fill="white" transform="translate(8.42046 10.858)"/>
</clipPath>
</defs>
</svg>
